# xmcd
#
# Track frame offsets: 
#        150
#        14772
#        33236
#        48701
#        61192
#        75680
#        88563
#        105665
#        116844
#        133148
#        145547
#        157650
#        170036
#        181706
#        192689
#        205169
#        216402
#        225821
#        243655
#        254808
#        267178
#        280997
#
# Disc length: 3947 seconds
#
# Revision: 0
# Processed by: cddbd v1.5.2PL0 Copyright (c) Steve Scherf et al.
# Submitted via: ExactAudioCopy v1.1
#
DISCID=410f6916
DTITLE=Various Artist - All-Time Country Favourites Tearjerkers
DYEAR=2012
DGENRE=Country
TTITLE0=Connie Francis - Raining in my heart
TTITLE1=Kenny Rogers - My funny valentine
TTITLE2=Dolly Parton - Old flames can't hold a candle to you
TTITLE3=Don Williams - Some broken hearts never mend
TTITLE4=Tanya Tucker - Just another love
TTITLE5=Willie Nelson - Forgiving you was easy
TTITLE6=Kris Kristofferson - Loving her was easier (than anything I'll
TTITLE6=ever do again )
TTITLE7=Charlie Rich - I love my friend
TTITLE8=Loretta Lynn - Table for two
TTITLE9=Ray Price - I've got a new heartache
TTITLE10=Jim Reeves - Am I losing you
TTITLE11=Ernest Tubb and Loretta Lynn - Mr and Mrs Used To Be
TTITLE12=Johnnie and Jack - Cryin' heart blues
TTITLE13=Patsy Cline - I cried all the way to the altar
TTITLE14=Lee Miles and Bobby Sykes - A dear John letter
TTITLE15=Connie Smith - Nobody but a fool ( would love you )
TTITLE16=Sonny James - Behind the tear
TTITLE17=Anne Murray - Broken hearted me
TTITLE18=Waylon Jennings - (That's what you get ) for loving me
TTITLE19=Billie Jo Spears - Lonely hearts club
TTITLE20=Jim Ed Brown and Helen Cornelius - You don't bring me flowers
TTITLE21=Kenny Rogers and Dottie West - 'Til I can make it on my own
EXTD=
EXTT0=
EXTT1=
EXTT2=
EXTT3=
EXTT4=
EXTT5=
EXTT6=
EXTT7=
EXTT8=
EXTT9=
EXTT10=
EXTT11=
EXTT12=
EXTT13=
EXTT14=
EXTT15=
EXTT16=
EXTT17=
EXTT18=
EXTT19=
EXTT20=
EXTT21=
PLAYORDER=
